<mxfile host="app.diagrams.net" modified="2020-11-11T08:27:43.718Z" agent="5.0 (Windows NT 10.0; Win64; x64) AppleWebKit/537.36 (KHTML, like Gecko) Chrome/86.0.4240.183 Safari/537.36" etag="yuKpI4Hf26w-JCWrdM5o" version="13.9.2" type="github">
  <diagram id="_u3g6GnB_raZXmo45-fK" name="Page-1">
    <mxGraphModel dx="1102" dy="582" grid="1" gridSize="10" guides="1" tooltips="1" connect="1" arrows="1" fold="1" page="1" pageScale="1" pageWidth="827" pageHeight="1169" math="0" shadow="0">
      <root>
        <mxCell id="0" />
        <mxCell id="1" parent="0" />
        <mxCell id="zRh2Pe1mVj68i9vXukOw-1" value="" style="rounded=0;whiteSpace=wrap;html=1;" parent="1" vertex="1">
          <mxGeometry x="60" y="90" width="190" height="80" as="geometry" />
        </mxCell>
        <mxCell id="zRh2Pe1mVj68i9vXukOw-13" style="edgeStyle=orthogonalEdgeStyle;rounded=0;orthogonalLoop=1;jettySize=auto;html=1;exitX=0.5;exitY=0;exitDx=0;exitDy=0;entryX=0;entryY=0.5;entryDx=0;entryDy=0;" parent="1" source="zRh2Pe1mVj68i9vXukOw-2" target="zRh2Pe1mVj68i9vXukOw-12" edge="1">
          <mxGeometry relative="1" as="geometry" />
        </mxCell>
        <mxCell id="zRh2Pe1mVj68i9vXukOw-2" value="GE0/8/0" style="rounded=1;whiteSpace=wrap;html=1;" parent="1" vertex="1">
          <mxGeometry x="80" y="170" width="60" height="20" as="geometry" />
        </mxCell>
        <mxCell id="zRh2Pe1mVj68i9vXukOw-8" style="edgeStyle=orthogonalEdgeStyle;rounded=0;orthogonalLoop=1;jettySize=auto;html=1;exitX=0.5;exitY=1;exitDx=0;exitDy=0;" parent="1" source="zRh2Pe1mVj68i9vXukOw-3" target="zRh2Pe1mVj68i9vXukOw-7" edge="1">
          <mxGeometry relative="1" as="geometry" />
        </mxCell>
        <mxCell id="zRh2Pe1mVj68i9vXukOw-3" value="GE0/3/0" style="rounded=1;whiteSpace=wrap;html=1;" parent="1" vertex="1">
          <mxGeometry x="170" y="170" width="60" height="20" as="geometry" />
        </mxCell>
        <mxCell id="zRh2Pe1mVj68i9vXukOw-5" style="edgeStyle=orthogonalEdgeStyle;rounded=0;orthogonalLoop=1;jettySize=auto;html=1;exitX=0.5;exitY=0;exitDx=0;exitDy=0;entryX=0.5;entryY=1;entryDx=0;entryDy=0;" parent="1" source="zRh2Pe1mVj68i9vXukOw-4" target="zRh2Pe1mVj68i9vXukOw-2" edge="1">
          <mxGeometry relative="1" as="geometry" />
        </mxCell>
        <mxCell id="zRh2Pe1mVj68i9vXukOw-4" value="" style="rounded=0;whiteSpace=wrap;html=1;" parent="1" vertex="1">
          <mxGeometry x="80" y="260" width="60" height="50" as="geometry" />
        </mxCell>
        <mxCell id="zRh2Pe1mVj68i9vXukOw-6" value="20.20.20.2" style="text;html=1;strokeColor=none;fillColor=none;align=center;verticalAlign=middle;whiteSpace=wrap;rounded=0;" parent="1" vertex="1">
          <mxGeometry x="60" y="240" width="40" height="20" as="geometry" />
        </mxCell>
        <mxCell id="zRh2Pe1mVj68i9vXukOw-10" style="edgeStyle=orthogonalEdgeStyle;rounded=0;orthogonalLoop=1;jettySize=auto;html=1;exitX=0.5;exitY=1;exitDx=0;exitDy=0;exitPerimeter=0;entryX=0.625;entryY=0.2;entryDx=0;entryDy=0;entryPerimeter=0;" parent="1" source="zRh2Pe1mVj68i9vXukOw-7" edge="1">
          <mxGeometry relative="1" as="geometry">
            <mxPoint x="199.75" y="360" as="targetPoint" />
          </mxGeometry>
        </mxCell>
        <mxCell id="zRh2Pe1mVj68i9vXukOw-7" value="" style="shape=mxgraph.cisco.routers.router;html=1;pointerEvents=1;dashed=0;fillColor=#036897;strokeColor=#ffffff;strokeWidth=2;verticalLabelPosition=bottom;verticalAlign=top;align=center;outlineConnect=0;" parent="1" vertex="1">
          <mxGeometry x="171" y="260" width="58" height="43" as="geometry" />
        </mxCell>
        <mxCell id="zRh2Pe1mVj68i9vXukOw-15" style="edgeStyle=orthogonalEdgeStyle;rounded=0;orthogonalLoop=1;jettySize=auto;html=1;exitX=1;exitY=0.5;exitDx=0;exitDy=0;" parent="1" source="zRh2Pe1mVj68i9vXukOw-12" target="zRh2Pe1mVj68i9vXukOw-3" edge="1">
          <mxGeometry relative="1" as="geometry" />
        </mxCell>
        <mxCell id="zRh2Pe1mVj68i9vXukOw-12" value="NAT" style="rounded=1;whiteSpace=wrap;html=1;" parent="1" vertex="1">
          <mxGeometry x="132" y="110" width="46" height="30" as="geometry" />
        </mxCell>
        <mxCell id="zRh2Pe1mVj68i9vXukOw-16" value="&lt;span&gt;8.8.8.8&lt;/span&gt;" style="ellipse;shape=cloud;whiteSpace=wrap;html=1;" parent="1" vertex="1">
          <mxGeometry x="150" y="360" width="100" height="50" as="geometry" />
        </mxCell>
        <mxCell id="zRh2Pe1mVj68i9vXukOw-17" value="dpdk-input" style="text;html=1;strokeColor=none;fillColor=none;align=center;verticalAlign=middle;whiteSpace=wrap;rounded=0;" parent="1" vertex="1">
          <mxGeometry x="40" y="190" width="60" height="20" as="geometry" />
        </mxCell>
        <mxCell id="zRh2Pe1mVj68i9vXukOw-18" value="192.168.0.106" style="text;html=1;strokeColor=none;fillColor=none;align=center;verticalAlign=middle;whiteSpace=wrap;rounded=0;" parent="1" vertex="1">
          <mxGeometry x="210" y="190" width="60" height="20" as="geometry" />
        </mxCell>
        <mxCell id="zRh2Pe1mVj68i9vXukOw-19" value="192.168.0.1" style="text;html=1;strokeColor=none;fillColor=none;align=center;verticalAlign=middle;whiteSpace=wrap;rounded=0;" parent="1" vertex="1">
          <mxGeometry x="210" y="240" width="60" height="20" as="geometry" />
        </mxCell>
        <mxCell id="zRh2Pe1mVj68i9vXukOw-20" value="VPP" style="text;html=1;strokeColor=none;fillColor=none;align=center;verticalAlign=middle;whiteSpace=wrap;rounded=0;" parent="1" vertex="1">
          <mxGeometry x="60" y="90" width="40" height="20" as="geometry" />
        </mxCell>
        <mxCell id="zRh2Pe1mVj68i9vXukOw-21" value="" style="shape=table;html=1;whiteSpace=wrap;startSize=0;container=1;collapsible=0;childLayout=tableLayout;" parent="1" vertex="1">
          <mxGeometry x="60" y="430" width="200" height="47" as="geometry" />
        </mxCell>
        <mxCell id="zRh2Pe1mVj68i9vXukOw-22" value="" style="shape=partialRectangle;html=1;whiteSpace=wrap;collapsible=0;dropTarget=0;pointerEvents=0;fillColor=none;top=0;left=0;bottom=0;right=0;points=[[0,0.5],[1,0.5]];portConstraint=eastwest;" parent="zRh2Pe1mVj68i9vXukOw-21" vertex="1">
          <mxGeometry width="200" height="23" as="geometry" />
        </mxCell>
        <mxCell id="zRh2Pe1mVj68i9vXukOw-23" value="dst" style="shape=partialRectangle;html=1;whiteSpace=wrap;connectable=0;fillColor=none;top=0;left=0;bottom=0;right=0;overflow=hidden;" parent="zRh2Pe1mVj68i9vXukOw-22" vertex="1">
          <mxGeometry width="44" height="23" as="geometry" />
        </mxCell>
        <mxCell id="zRh2Pe1mVj68i9vXukOw-24" value="next hoop" style="shape=partialRectangle;html=1;whiteSpace=wrap;connectable=0;fillColor=none;top=0;left=0;bottom=0;right=0;overflow=hidden;" parent="zRh2Pe1mVj68i9vXukOw-22" vertex="1">
          <mxGeometry x="44" width="89" height="23" as="geometry" />
        </mxCell>
        <mxCell id="zRh2Pe1mVj68i9vXukOw-25" value="out int" style="shape=partialRectangle;html=1;whiteSpace=wrap;connectable=0;fillColor=none;top=0;left=0;bottom=0;right=0;overflow=hidden;" parent="zRh2Pe1mVj68i9vXukOw-22" vertex="1">
          <mxGeometry x="133" width="67" height="23" as="geometry" />
        </mxCell>
        <mxCell id="zRh2Pe1mVj68i9vXukOw-26" value="" style="shape=partialRectangle;html=1;whiteSpace=wrap;collapsible=0;dropTarget=0;pointerEvents=0;fillColor=none;top=0;left=0;bottom=0;right=0;points=[[0,0.5],[1,0.5]];portConstraint=eastwest;" parent="zRh2Pe1mVj68i9vXukOw-21" vertex="1">
          <mxGeometry y="23" width="200" height="24" as="geometry" />
        </mxCell>
        <mxCell id="zRh2Pe1mVj68i9vXukOw-27" value="" style="shape=partialRectangle;html=1;whiteSpace=wrap;connectable=0;fillColor=none;top=0;left=0;bottom=0;right=0;overflow=hidden;" parent="zRh2Pe1mVj68i9vXukOw-26" vertex="1">
          <mxGeometry width="44" height="24" as="geometry" />
        </mxCell>
        <mxCell id="zRh2Pe1mVj68i9vXukOw-28" value="192.168.0.1" style="shape=partialRectangle;html=1;whiteSpace=wrap;connectable=0;fillColor=none;top=0;left=0;bottom=0;right=0;overflow=hidden;" parent="zRh2Pe1mVj68i9vXukOw-26" vertex="1">
          <mxGeometry x="44" width="89" height="24" as="geometry" />
        </mxCell>
        <mxCell id="zRh2Pe1mVj68i9vXukOw-29" value="GE0/3/0" style="shape=partialRectangle;html=1;whiteSpace=wrap;connectable=0;fillColor=none;top=0;left=0;bottom=0;right=0;overflow=hidden;" parent="zRh2Pe1mVj68i9vXukOw-26" vertex="1">
          <mxGeometry x="133" width="67" height="24" as="geometry" />
        </mxCell>
        <mxCell id="zRh2Pe1mVj68i9vXukOw-69" value="" style="rounded=0;whiteSpace=wrap;html=1;" parent="1" vertex="1">
          <mxGeometry x="351" y="91.5" width="370" height="80" as="geometry" />
        </mxCell>
        <mxCell id="zRh2Pe1mVj68i9vXukOw-70" style="edgeStyle=orthogonalEdgeStyle;rounded=0;orthogonalLoop=1;jettySize=auto;html=1;exitX=0.5;exitY=0;exitDx=0;exitDy=0;entryX=0;entryY=0.5;entryDx=0;entryDy=0;" parent="1" source="zRh2Pe1mVj68i9vXukOw-71" target="zRh2Pe1mVj68i9vXukOw-80" edge="1">
          <mxGeometry relative="1" as="geometry" />
        </mxCell>
        <mxCell id="zRh2Pe1mVj68i9vXukOw-71" value="GE0/8/0" style="rounded=1;whiteSpace=wrap;html=1;" parent="1" vertex="1">
          <mxGeometry x="371" y="171.5" width="60" height="20" as="geometry" />
        </mxCell>
        <mxCell id="zRh2Pe1mVj68i9vXukOw-72" style="edgeStyle=orthogonalEdgeStyle;rounded=0;orthogonalLoop=1;jettySize=auto;html=1;exitX=0.5;exitY=1;exitDx=0;exitDy=0;" parent="1" source="zRh2Pe1mVj68i9vXukOw-73" target="zRh2Pe1mVj68i9vXukOw-78" edge="1">
          <mxGeometry relative="1" as="geometry" />
        </mxCell>
        <mxCell id="zRh2Pe1mVj68i9vXukOw-73" value="GE0/3/0" style="rounded=1;whiteSpace=wrap;html=1;" parent="1" vertex="1">
          <mxGeometry x="644" y="171.5" width="60" height="20" as="geometry" />
        </mxCell>
        <mxCell id="zRh2Pe1mVj68i9vXukOw-74" style="edgeStyle=orthogonalEdgeStyle;rounded=0;orthogonalLoop=1;jettySize=auto;html=1;exitX=0.5;exitY=0;exitDx=0;exitDy=0;entryX=0.5;entryY=1;entryDx=0;entryDy=0;" parent="1" source="zRh2Pe1mVj68i9vXukOw-75" target="zRh2Pe1mVj68i9vXukOw-71" edge="1">
          <mxGeometry relative="1" as="geometry" />
        </mxCell>
        <mxCell id="zRh2Pe1mVj68i9vXukOw-75" value="" style="rounded=0;whiteSpace=wrap;html=1;" parent="1" vertex="1">
          <mxGeometry x="371" y="261.5" width="60" height="50" as="geometry" />
        </mxCell>
        <mxCell id="zRh2Pe1mVj68i9vXukOw-76" value="20.20.20.2" style="text;html=1;strokeColor=none;fillColor=none;align=center;verticalAlign=middle;whiteSpace=wrap;rounded=0;" parent="1" vertex="1">
          <mxGeometry x="351" y="241.5" width="40" height="20" as="geometry" />
        </mxCell>
        <mxCell id="zRh2Pe1mVj68i9vXukOw-77" style="edgeStyle=orthogonalEdgeStyle;rounded=0;orthogonalLoop=1;jettySize=auto;html=1;exitX=0.5;exitY=1;exitDx=0;exitDy=0;exitPerimeter=0;entryX=0.625;entryY=0.2;entryDx=0;entryDy=0;entryPerimeter=0;" parent="1" source="zRh2Pe1mVj68i9vXukOw-78" edge="1">
          <mxGeometry relative="1" as="geometry">
            <mxPoint x="673.75" y="361.5" as="targetPoint" />
          </mxGeometry>
        </mxCell>
        <mxCell id="zRh2Pe1mVj68i9vXukOw-78" value="" style="shape=mxgraph.cisco.routers.router;html=1;pointerEvents=1;dashed=0;fillColor=#036897;strokeColor=#ffffff;strokeWidth=2;verticalLabelPosition=bottom;verticalAlign=top;align=center;outlineConnect=0;" parent="1" vertex="1">
          <mxGeometry x="645" y="261.5" width="58" height="43" as="geometry" />
        </mxCell>
        <mxCell id="zRh2Pe1mVj68i9vXukOw-97" style="edgeStyle=orthogonalEdgeStyle;rounded=0;orthogonalLoop=1;jettySize=auto;html=1;exitX=1;exitY=0.5;exitDx=0;exitDy=0;entryX=0.25;entryY=0;entryDx=0;entryDy=0;" parent="1" source="zRh2Pe1mVj68i9vXukOw-80" target="zRh2Pe1mVj68i9vXukOw-95" edge="1">
          <mxGeometry relative="1" as="geometry">
            <Array as="points">
              <mxPoint x="476" y="127" />
            </Array>
          </mxGeometry>
        </mxCell>
        <mxCell id="zRh2Pe1mVj68i9vXukOw-80" value="ABF" style="rounded=1;whiteSpace=wrap;html=1;" parent="1" vertex="1">
          <mxGeometry x="423" y="111.5" width="38" height="30" as="geometry" />
        </mxCell>
        <mxCell id="zRh2Pe1mVj68i9vXukOw-81" value="&lt;span&gt;8.8.8.8&lt;/span&gt;" style="ellipse;shape=cloud;whiteSpace=wrap;html=1;" parent="1" vertex="1">
          <mxGeometry x="624" y="361.5" width="100" height="50" as="geometry" />
        </mxCell>
        <mxCell id="zRh2Pe1mVj68i9vXukOw-82" value="dpdk-input" style="text;html=1;strokeColor=none;fillColor=none;align=center;verticalAlign=middle;whiteSpace=wrap;rounded=0;" parent="1" vertex="1">
          <mxGeometry x="331" y="191.5" width="60" height="20" as="geometry" />
        </mxCell>
        <mxCell id="zRh2Pe1mVj68i9vXukOw-83" value="192.168.0.106" style="text;html=1;strokeColor=none;fillColor=none;align=center;verticalAlign=middle;whiteSpace=wrap;rounded=0;" parent="1" vertex="1">
          <mxGeometry x="684" y="191.5" width="60" height="20" as="geometry" />
        </mxCell>
        <mxCell id="zRh2Pe1mVj68i9vXukOw-84" value="192.168.0.4" style="text;html=1;strokeColor=none;fillColor=none;align=center;verticalAlign=middle;whiteSpace=wrap;rounded=0;" parent="1" vertex="1">
          <mxGeometry x="684" y="241.5" width="60" height="20" as="geometry" />
        </mxCell>
        <mxCell id="zRh2Pe1mVj68i9vXukOw-85" value="VPP" style="text;html=1;strokeColor=none;fillColor=none;align=center;verticalAlign=middle;whiteSpace=wrap;rounded=0;" parent="1" vertex="1">
          <mxGeometry x="351" y="91.5" width="40" height="20" as="geometry" />
        </mxCell>
        <mxCell id="zRh2Pe1mVj68i9vXukOw-86" value="" style="shape=table;html=1;whiteSpace=wrap;startSize=0;container=1;collapsible=0;childLayout=tableLayout;" parent="1" vertex="1">
          <mxGeometry x="420" y="380" width="200" height="47" as="geometry" />
        </mxCell>
        <mxCell id="zRh2Pe1mVj68i9vXukOw-87" value="" style="shape=partialRectangle;html=1;whiteSpace=wrap;collapsible=0;dropTarget=0;pointerEvents=0;fillColor=none;top=0;left=0;bottom=0;right=0;points=[[0,0.5],[1,0.5]];portConstraint=eastwest;" parent="zRh2Pe1mVj68i9vXukOw-86" vertex="1">
          <mxGeometry width="200" height="23" as="geometry" />
        </mxCell>
        <mxCell id="zRh2Pe1mVj68i9vXukOw-88" value="dst" style="shape=partialRectangle;html=1;whiteSpace=wrap;connectable=0;fillColor=none;top=0;left=0;bottom=0;right=0;overflow=hidden;" parent="zRh2Pe1mVj68i9vXukOw-87" vertex="1">
          <mxGeometry width="44" height="23" as="geometry" />
        </mxCell>
        <mxCell id="zRh2Pe1mVj68i9vXukOw-89" value="next hoop" style="shape=partialRectangle;html=1;whiteSpace=wrap;connectable=0;fillColor=none;top=0;left=0;bottom=0;right=0;overflow=hidden;" parent="zRh2Pe1mVj68i9vXukOw-87" vertex="1">
          <mxGeometry x="44" width="89" height="23" as="geometry" />
        </mxCell>
        <mxCell id="zRh2Pe1mVj68i9vXukOw-90" value="out int" style="shape=partialRectangle;html=1;whiteSpace=wrap;connectable=0;fillColor=none;top=0;left=0;bottom=0;right=0;overflow=hidden;" parent="zRh2Pe1mVj68i9vXukOw-87" vertex="1">
          <mxGeometry x="133" width="67" height="23" as="geometry" />
        </mxCell>
        <mxCell id="zRh2Pe1mVj68i9vXukOw-91" value="" style="shape=partialRectangle;html=1;whiteSpace=wrap;collapsible=0;dropTarget=0;pointerEvents=0;fillColor=none;top=0;left=0;bottom=0;right=0;points=[[0,0.5],[1,0.5]];portConstraint=eastwest;" parent="zRh2Pe1mVj68i9vXukOw-86" vertex="1">
          <mxGeometry y="23" width="200" height="24" as="geometry" />
        </mxCell>
        <mxCell id="zRh2Pe1mVj68i9vXukOw-92" value="" style="shape=partialRectangle;html=1;whiteSpace=wrap;connectable=0;fillColor=none;top=0;left=0;bottom=0;right=0;overflow=hidden;" parent="zRh2Pe1mVj68i9vXukOw-91" vertex="1">
          <mxGeometry width="44" height="24" as="geometry" />
        </mxCell>
        <mxCell id="zRh2Pe1mVj68i9vXukOw-93" value="10.100.0.4" style="shape=partialRectangle;html=1;whiteSpace=wrap;connectable=0;fillColor=none;top=0;left=0;bottom=0;right=0;overflow=hidden;" parent="zRh2Pe1mVj68i9vXukOw-91" vertex="1">
          <mxGeometry x="44" width="89" height="24" as="geometry" />
        </mxCell>
        <mxCell id="zRh2Pe1mVj68i9vXukOw-94" value="loop2" style="shape=partialRectangle;html=1;whiteSpace=wrap;connectable=0;fillColor=none;top=0;left=0;bottom=0;right=0;overflow=hidden;" parent="zRh2Pe1mVj68i9vXukOw-91" vertex="1">
          <mxGeometry x="133" width="67" height="24" as="geometry" />
        </mxCell>
        <mxCell id="zRh2Pe1mVj68i9vXukOw-100" style="edgeStyle=orthogonalEdgeStyle;rounded=0;orthogonalLoop=1;jettySize=auto;html=1;exitX=0.75;exitY=0;exitDx=0;exitDy=0;entryX=0;entryY=0.5;entryDx=0;entryDy=0;" parent="1" source="zRh2Pe1mVj68i9vXukOw-95" target="zRh2Pe1mVj68i9vXukOw-98" edge="1">
          <mxGeometry relative="1" as="geometry">
            <Array as="points">
              <mxPoint x="506" y="125" />
            </Array>
          </mxGeometry>
        </mxCell>
        <mxCell id="zRh2Pe1mVj68i9vXukOw-95" value="loop2" style="rounded=1;whiteSpace=wrap;html=1;" parent="1" vertex="1">
          <mxGeometry x="461" y="170" width="60" height="20" as="geometry" />
        </mxCell>
        <mxCell id="zRh2Pe1mVj68i9vXukOw-102" style="edgeStyle=orthogonalEdgeStyle;rounded=0;orthogonalLoop=1;jettySize=auto;html=1;exitX=0.75;exitY=0;exitDx=0;exitDy=0;entryX=0;entryY=0.5;entryDx=0;entryDy=0;" parent="1" source="zRh2Pe1mVj68i9vXukOw-96" target="zRh2Pe1mVj68i9vXukOw-99" edge="1">
          <mxGeometry relative="1" as="geometry">
            <Array as="points">
              <mxPoint x="596" y="125" />
            </Array>
          </mxGeometry>
        </mxCell>
        <mxCell id="zRh2Pe1mVj68i9vXukOw-96" value="loop3" style="rounded=1;whiteSpace=wrap;html=1;" parent="1" vertex="1">
          <mxGeometry x="551" y="170" width="60" height="20" as="geometry" />
        </mxCell>
        <mxCell id="zRh2Pe1mVj68i9vXukOw-101" style="edgeStyle=orthogonalEdgeStyle;rounded=0;orthogonalLoop=1;jettySize=auto;html=1;exitX=1;exitY=0.5;exitDx=0;exitDy=0;entryX=0.25;entryY=0;entryDx=0;entryDy=0;" parent="1" source="zRh2Pe1mVj68i9vXukOw-98" target="zRh2Pe1mVj68i9vXukOw-96" edge="1">
          <mxGeometry relative="1" as="geometry">
            <Array as="points">
              <mxPoint x="566" y="125" />
            </Array>
          </mxGeometry>
        </mxCell>
        <mxCell id="zRh2Pe1mVj68i9vXukOw-98" value="IPSec" style="rounded=1;whiteSpace=wrap;html=1;" parent="1" vertex="1">
          <mxGeometry x="517" y="110" width="38" height="30" as="geometry" />
        </mxCell>
        <mxCell id="zRh2Pe1mVj68i9vXukOw-103" style="edgeStyle=orthogonalEdgeStyle;rounded=0;orthogonalLoop=1;jettySize=auto;html=1;exitX=1;exitY=0.5;exitDx=0;exitDy=0;" parent="1" source="zRh2Pe1mVj68i9vXukOw-99" target="zRh2Pe1mVj68i9vXukOw-73" edge="1">
          <mxGeometry relative="1" as="geometry" />
        </mxCell>
        <mxCell id="zRh2Pe1mVj68i9vXukOw-99" value="VxLAN" style="rounded=1;whiteSpace=wrap;html=1;" parent="1" vertex="1">
          <mxGeometry x="611" y="110" width="38" height="30" as="geometry" />
        </mxCell>
        <mxCell id="zRh2Pe1mVj68i9vXukOw-104" value="" style="shape=table;html=1;whiteSpace=wrap;startSize=0;container=1;collapsible=0;childLayout=tableLayout;" parent="1" vertex="1">
          <mxGeometry x="420" y="427" width="200" height="47" as="geometry" />
        </mxCell>
        <mxCell id="zRh2Pe1mVj68i9vXukOw-105" value="" style="shape=partialRectangle;html=1;whiteSpace=wrap;collapsible=0;dropTarget=0;pointerEvents=0;fillColor=none;top=0;left=0;bottom=0;right=0;points=[[0,0.5],[1,0.5]];portConstraint=eastwest;" parent="zRh2Pe1mVj68i9vXukOw-104" vertex="1">
          <mxGeometry width="200" height="23" as="geometry" />
        </mxCell>
        <mxCell id="zRh2Pe1mVj68i9vXukOw-106" value="" style="shape=partialRectangle;html=1;whiteSpace=wrap;connectable=0;fillColor=none;top=0;left=0;bottom=0;right=0;overflow=hidden;" parent="zRh2Pe1mVj68i9vXukOw-105" vertex="1">
          <mxGeometry width="44" height="23" as="geometry" />
        </mxCell>
        <mxCell id="zRh2Pe1mVj68i9vXukOw-107" value="10.101.0.4" style="shape=partialRectangle;html=1;whiteSpace=wrap;connectable=0;fillColor=none;top=0;left=0;bottom=0;right=0;overflow=hidden;" parent="zRh2Pe1mVj68i9vXukOw-105" vertex="1">
          <mxGeometry x="44" width="89" height="23" as="geometry" />
        </mxCell>
        <mxCell id="zRh2Pe1mVj68i9vXukOw-108" value="loop3" style="shape=partialRectangle;html=1;whiteSpace=wrap;connectable=0;fillColor=none;top=0;left=0;bottom=0;right=0;overflow=hidden;" parent="zRh2Pe1mVj68i9vXukOw-105" vertex="1">
          <mxGeometry x="133" width="67" height="23" as="geometry" />
        </mxCell>
        <mxCell id="zRh2Pe1mVj68i9vXukOw-109" value="" style="shape=partialRectangle;html=1;whiteSpace=wrap;collapsible=0;dropTarget=0;pointerEvents=0;fillColor=none;top=0;left=0;bottom=0;right=0;points=[[0,0.5],[1,0.5]];portConstraint=eastwest;" parent="zRh2Pe1mVj68i9vXukOw-104" vertex="1">
          <mxGeometry y="23" width="200" height="24" as="geometry" />
        </mxCell>
        <mxCell id="zRh2Pe1mVj68i9vXukOw-110" value="" style="shape=partialRectangle;html=1;whiteSpace=wrap;connectable=0;fillColor=none;top=0;left=0;bottom=0;right=0;overflow=hidden;" parent="zRh2Pe1mVj68i9vXukOw-109" vertex="1">
          <mxGeometry width="44" height="24" as="geometry" />
        </mxCell>
        <mxCell id="zRh2Pe1mVj68i9vXukOw-111" value="192.168.0.104" style="shape=partialRectangle;html=1;whiteSpace=wrap;connectable=0;fillColor=none;top=0;left=0;bottom=0;right=0;overflow=hidden;" parent="zRh2Pe1mVj68i9vXukOw-109" vertex="1">
          <mxGeometry x="44" width="89" height="24" as="geometry" />
        </mxCell>
        <mxCell id="zRh2Pe1mVj68i9vXukOw-112" value="GE0/3/0" style="shape=partialRectangle;html=1;whiteSpace=wrap;connectable=0;fillColor=none;top=0;left=0;bottom=0;right=0;overflow=hidden;" parent="zRh2Pe1mVj68i9vXukOw-109" vertex="1">
          <mxGeometry x="133" width="67" height="24" as="geometry" />
        </mxCell>
        <mxCell id="zRh2Pe1mVj68i9vXukOw-113" value="10.101.0.5" style="text;html=1;strokeColor=none;fillColor=none;align=center;verticalAlign=middle;whiteSpace=wrap;rounded=0;" parent="1" vertex="1">
          <mxGeometry x="461" y="191.5" width="60" height="20" as="geometry" />
        </mxCell>
        <mxCell id="zRh2Pe1mVj68i9vXukOw-114" value="10.101.0.4" style="text;html=1;strokeColor=none;fillColor=none;align=center;verticalAlign=middle;whiteSpace=wrap;rounded=0;" parent="1" vertex="1">
          <mxGeometry x="551" y="191.5" width="60" height="20" as="geometry" />
        </mxCell>
        <mxCell id="zRh2Pe1mVj68i9vXukOw-115" value="" style="shape=flexArrow;endArrow=classic;html=1;endWidth=14;endSize=6.67;fillColor=#f8cecc;strokeColor=#b85450;" parent="1" edge="1">
          <mxGeometry width="50" height="50" relative="1" as="geometry">
            <mxPoint x="290" y="286" as="sourcePoint" />
            <mxPoint x="331" y="286" as="targetPoint" />
          </mxGeometry>
        </mxCell>
      </root>
    </mxGraphModel>
  </diagram>
</mxfile>
